<svg width="24" height="24" viewBox="0 0 24 24" fill="none" xmlns="http://www.w3.org/2000/svg">
<path d="M21.7305 10L17.5999 10C17.0399 10 16.7599 10 16.5459 9.89101C16.3578 9.79513 16.2048 9.64215 16.1089 9.45399C15.9999 9.24008 15.9999 8.96005 15.9999 8.4L15.9999 4.26946M6 11L6 16M14 13L14 16M10 8L10 16M14.0118 4L6.8 4C5.11984 4 4.27977 4 3.63803 4.32698C3.07354 4.6146 2.6146 5.07354 2.32698 5.63803C2 6.27976 2 7.11984 2 8.8L2 15.2C2 16.8802 2 17.7202 2.32698 18.362C2.6146 18.9265 3.07354 19.3854 3.63803 19.673C4.27976 20 5.11984 20 6.8 20L17.2 20C18.8802 20 19.7202 20 20.362 19.673C20.9265 19.3854 21.3854 18.9265 21.673 18.362C22 17.7202 22 16.8802 22 15.2L22 11.9882C22 11.2545 22 10.8876 21.9171 10.5423C21.8436 10.2362 21.7224 9.94356 21.5579 9.67515C21.3724 9.3724 21.113 9.11297 20.5941 8.59411L17.4059 5.40589C16.887 4.88703 16.6276 4.6276 16.3249 4.44208C16.0564 4.27759 15.7638 4.15638 15.4577 4.08289C15.1124 4 14.7455 4 14.0118 4Z" stroke="#192B44" stroke-width="1.6" stroke-linecap="round" stroke-linejoin="round"/>
</svg>
