<svg width="24" height="24" viewBox="0 0 24 24" fill="none" xmlns="http://www.w3.org/2000/svg">
<path d="M9.39512 19.3711L9.97956 20.6856C10.1533 21.0768 10.4368 21.4093 10.7958 21.6426C11.1547 21.8759 11.5737 22.0001 12.0018 22C12.4299 22.0001 12.8488 21.8759 13.2078 21.6426C13.5667 21.4093 13.8503 21.0768 14.024 20.6856L14.6085 19.3711C14.8165 18.9047 15.1665 18.5159 15.6085 18.26C16.0532 18.0034 16.5678 17.8941 17.0785 17.9478L18.5085 18.1C18.9341 18.145 19.3637 18.0656 19.7451 17.8713C20.1266 17.6771 20.4434 17.3763 20.6573 17.0056C20.8715 16.635 20.9736 16.2103 20.9511 15.7829C20.9286 15.3555 20.7825 14.9438 20.5307 14.5978L19.684 13.4344C19.3825 13.0171 19.2214 12.5148 19.224 12C19.2239 11.4866 19.3865 10.9864 19.6885 10.5711L20.5351 9.40778C20.787 9.06175 20.933 8.65007 20.9555 8.22267C20.978 7.79528 20.876 7.37054 20.6618 7C20.4479 6.62923 20.131 6.32849 19.7496 6.13423C19.3682 5.93997 18.9386 5.86053 18.5129 5.90556L17.0829 6.05778C16.5722 6.11141 16.0577 6.00212 15.6129 5.74556C15.17 5.48825 14.82 5.09736 14.6129 4.62889L14.024 3.31444C13.8503 2.92317 13.5667 2.59072 13.2078 2.3574C12.8488 2.12408 12.4299 1.99993 12.0018 2C11.5737 1.99993 11.1547 2.12408 10.7958 2.3574C10.4368 2.59072 10.1533 2.92317 9.97956 3.31444L9.39512 4.62889C9.18805 5.09736 8.83799 5.48825 8.39512 5.74556C7.95033 6.00212 7.43579 6.11141 6.92512 6.05778L5.49067 5.90556C5.065 5.86053 4.63541 5.93997 4.25399 6.13423C3.87256 6.32849 3.55569 6.62923 3.34178 7C3.12761 7.37054 3.02557 7.79528 3.04805 8.22267C3.07054 8.65007 3.21658 9.06175 3.46845 9.40778L4.31512 10.5711C4.61706 10.9864 4.77966 11.4866 4.77956 12C4.77966 12.5134 4.61706 13.0137 4.31512 13.4289L3.46845 14.5922C3.21658 14.9382 3.07054 15.3499 3.04805 15.7773C3.02557 16.2047 3.12761 16.6295 3.34178 17C3.5559 17.3706 3.87281 17.6712 4.25418 17.8654C4.63555 18.0596 5.06504 18.1392 5.49067 18.0944L6.92067 17.9422C7.43134 17.8886 7.94589 17.9979 8.39067 18.2544C8.8352 18.511 9.18688 18.902 9.39512 19.3711Z" stroke="#192B44" stroke-width="1.6" stroke-linecap="round" stroke-linejoin="round"/>
<path d="M12 15C13.6569 15 15 13.6569 15 12C15 10.3431 13.6569 9 12 9C10.3431 9 9 10.3431 9 12C9 13.6569 10.3431 15 12 15Z" stroke="#192B44" stroke-width="1.6" stroke-linecap="round" stroke-linejoin="round"/>
</svg>
